Coordinates
version=1
nRows=7
nColumns=63
inDegrees=yes

Units are S.I. units (second, meters, Newtons, ...)
If the header above contains a line with 'inDegrees', this indicates whether rotational values are in degrees (yes) or radians (no).

endheader
time	pelvis_tilt	pelvis_list	pelvis_rotation	pelvis_tx	pelvis_ty	pelvis_tz	hip_flexion_r	hip_adduction_r	hip_rotation_r	knee_angle_r	knee_angle_r_beta	ankle_angle_r	subtalar_angle_r	mtp_angle_r	hip_flexion_l	hip_adduction_l	hip_rotation_l	knee_angle_l	knee_angle_l_beta	ankle_angle_l	subtalar_angle_l	mtp_angle_l	L5_S1_Flex_Ext	L5_S1_Lat_Bending	L5_S1_axial_rotation	L4_L5_Flex_Ext	L4_L5_Lat_Bending	L4_L5_axial_rotation	L3_L4_Flex_Ext	L3_L4_Lat_Bending	L3_L4_axial_rotation	L2_L3_Flex_Ext	L2_L3_Lat_Bending	L2_L3_axial_rotation	L1_L2_Flex_Ext	L1_L2_Lat_Bending	L1_L2_axial_rotation	L1_T12_Flex_Ext	L1_T12_Lat_Bending	L1_T12_axial_rotation	Abs_r3	Abs_r2	Abs_r1	Abs_t1	Abs_t2	neck_flexion	neck_bending	neck_rotation	arm_flex_r	arm_add_r	arm_rot_r	elbow_flex_r	pro_sup_r	wrist_flex_r	wrist_dev_r	arm_flex_l	arm_add_l	arm_rot_l	elbow_flex_l	pro_sup_l	wrist_flex_l	wrist_dev_l
      2.96000000	      2.43443890	     -0.05489844	     87.15396452	      0.22852733	      1.00411129	      0.15661603	      2.20675132	      2.99128012	    -14.75649357	     15.28698429	      0.26680821	     26.75466890	     16.98415485	      0.00000000	     -0.87783830	     -5.84547284	    -24.60095571	     12.79497110	      0.22331437	     26.66665510	     13.89815420	      0.00000000	      0.23817467	     -0.62339119	     -2.08582565	      0.44231418	     -0.82911028	     -2.21618976	      0.39129717	     -1.51571334	     -2.21618976	      0.27220983	     -1.51571334	     -1.82509745	      0.22116900	     -1.27121931	     -1.69473334	      0.13609301	     -0.96563295	     -1.56436924	      1.70125787	     -7.05192582	    -11.60073653	      0.00000000	      0.00000000	     25.05636436	     -0.82094728	    -11.14157829	     57.23759005	    -34.56870359	      9.97806506	    123.93007731	     87.36820385	     18.79922344	     10.35387534	     50.34293070	      9.08483310	     29.00518951	    117.94656981	     84.76474520	     -7.76195691	     -0.17794711
      2.98000000	      2.42528608	     -0.36326750	     87.39954018	      0.22745481	      1.00346992	      0.15714526	      2.71960707	      2.82414684	    -15.33495465	     15.68319917	      0.27372346	     26.81813142	     17.01408582	      0.00000000	     -0.28994315	     -5.89337763	    -24.24616945	     13.24050389	      0.23109039	     26.58413101	     13.62688841	      0.00000000	      0.22577444	     -0.57091774	     -1.92823237	      0.41928572	     -0.75932059	     -2.04874689	      0.37092483	     -1.38812938	     -2.04874689	      0.25803761	     -1.38812938	     -1.68720332	      0.20965415	     -1.16421545	     -1.56668880	      0.12900752	     -0.88435157	     -1.44617428	      1.61268427	     -6.45833562	    -10.72424996	      0.00000000	      0.00000000	     23.87365522	      0.12798240	    -10.78782455	     54.85964578	    -35.26334035	     11.04853225	    122.86613540	     87.11630438	     19.25111580	      9.70559573	     48.37806131	      7.50664517	     30.84482980	    118.99733527	     84.27177263	     -6.28265484	      0.82632259
      3.00000000	      2.24071941	     -0.52538895	     88.18736902	      0.22612285	      1.00264643	      0.15782914	      3.03882705	      2.42890323	    -16.61507850	     16.08514933	      0.28073882	     27.07097566	     17.33311221	      0.00000000	      0.24126852	     -5.69166030	    -22.96384930	     13.59043200	      0.23719779	     26.41284985	     12.72976543	      0.00000000	      0.18545993	     -0.56144972	     -1.83833328	      0.34441763	     -0.74672813	     -1.95322911	      0.30469212	     -1.36510885	     -1.95322911	      0.21196215	     -1.36510885	     -1.60854162	      0.17221809	     -1.14490827	     -1.49364579	      0.10597180	     -0.86968561	     -1.37874996	      1.32472173	     -6.35123151	    -10.22425823	      0.00000000	      0.00000000	     23.63344137	      1.33603147	    -11.78447997	     52.16734915	    -35.79442722	     12.12242278	    120.95507435	     87.18532689	     17.71863569	      6.60650487	     46.88626769	      5.63049736	     32.16124802	    120.17953160	     83.46934990	     -1.63597300	      6.22462161
      3.02000000	      1.95243838	     -0.77598188	     88.87283591	      0.22538989	      1.00151245	      0.15831179	      3.40829651	      2.01628725	    -17.40243551	     16.40439406	      0.28631069	     27.47044290	     17.34090149	      0.00000000	      0.88357463	     -5.48245531	    -22.23397031	     14.10531418	      0.24618417	     26.44670544	     12.46010759	      0.00000000	      0.18769066	     -0.57240590	     -1.68955582	      0.34856032	     -0.76129985	     -1.79515306	      0.30835698	     -1.39174771	     -1.79515306	      0.21451165	     -1.39174771	     -1.47836134	      0.17428954	     -1.16725012	     -1.37276410	      0.10724644	     -0.88665674	     -1.26716686	      1.34065560	     -6.47517006	     -9.39680260	      0.00000000	      0.00000000	     23.42575362	      2.98919344	    -12.78685630	     49.00285939	    -35.91555134	     12.99086461	    119.20030953	     86.87417965	     13.52000589	      5.71386185	     45.57979716	      3.30436206	     34.07590202	    120.90285420	     84.78821782	      0.85198005	      9.73683317
      3.04000000	      1.79643868	     -0.76882553	     89.75399416	      0.22426341	      1.00060765	      0.15861230	      3.43876044	      1.73756666	    -18.32072424	     16.64294353	      0.29047416	     27.95350858	     17.47988494	      0.00000000	      1.14941386	     -5.33796710	    -21.37753294	     14.37664645	      0.25091982	     26.54482407	     12.35080707	      0.00000000	      0.15969811	     -0.56836664	     -1.55052002	      0.29657536	     -0.75592763	     -1.64742752	      0.26236802	     -1.38192665	     -1.64742752	      0.18251897	     -1.38192665	     -1.35670501	      0.14829566	     -1.15901326	     -1.25979751	      0.09125150	     -0.88039993	     -1.16289001	      1.14070762	     -6.42947713	     -8.62352717	      0.00000000	      0.00000000	     23.45584910	      3.60600254	    -14.27041170	     45.59903718	    -36.03707325	     14.07804009	    117.68632619	     85.99853688	      7.29377786	      4.64744204	     44.16848154	      0.79468547	     35.78651804	    121.59207268	     87.00388929	      4.35401507	     13.79431385
      3.06000000	      1.68219119	     -0.59986964	     90.43097558	      0.22369032	      0.99986773	      0.15877329	      3.25611510	      1.61408117	    -18.58338542	     16.74805646	      0.29230873	     28.65963716	     17.42469162	      0.00000000	      1.27893150	     -5.32797367	    -20.94604674	     14.86237717	      0.25939742	     26.82611995	     12.44820964	      0.00000000	      0.13900933	     -0.54387344	     -1.40439038	      0.25815423	     -0.72335167	     -1.49216477	      0.22837843	     -1.32237388	     -1.49216477	      0.15887376	     -1.32237388	     -1.22884158	      0.12908406	     -1.10906672	     -1.14106718	      0.07942993	     -0.84245996	     -1.05329278	      0.99292974	     -6.15240512	     -7.81079795	      0.00000000	      0.00000000	     22.98573335	      3.38767999	    -13.82997493	     41.86082769	    -35.14036193	     14.17466688	    116.15078643	     84.99270573	      5.97503961	      4.58963422	     42.28414545	     -2.38574073	     37.97962613	    121.90275373	     87.90001662	      5.90551577	     14.73828579
      3.08000000	      1.20121917	     -0.63009912	     91.87869815	      0.22215699	      0.99908713	      0.15823471	      3.08321739	      1.07893239	    -19.71943739	     16.70079564	      0.29148387	     29.61170611	     17.52943825	      0.00000000	      1.64173924	     -4.83687540	    -19.47862591	     15.17178172	      0.26479754	     26.70107337	     12.29923092	      0.00000000	      0.15630647	     -0.58488489	     -1.36534082	      0.29027674	     -0.77789691	     -1.45067462	      0.25679590	     -1.42208913	     -1.45067462	      0.17864266	     -1.42208913	     -1.19467322	      0.14514619	     -1.19269727	     -1.10933942	      0.08931352	     -0.90598670	     -1.02400562	      1.11648148	     -6.61633489	     -7.59361605	      0.00000000	      0.00000000	     22.56491156	      3.65432715	    -14.59430949	     36.79847903	    -35.20868610	     14.73502738	    115.57961432	     81.32495211	      1.16179525	      4.36492255	     39.38804229	     -4.57817590	     39.05787789	    122.00316667	     88.44017202	     12.03105742	     19.06923374
